<?xml version="1.0" encoding="utf-8"?>
<!-- Generator: Adobe Illustrator 16.0.0, SVG Export Plug-In . SVG Version: 6.00 Build 0)  -->
<!DOCTYPE svg PUBLIC "-//W3C//DTD SVG 1.1//EN" "http://www.w3.org/Graphics/SVG/1.1/DTD/svg11.dtd">
<svg version="1.1" id="Layer_1" xmlns="http://www.w3.org/2000/svg" xmlns:xlink="http://www.w3.org/1999/xlink" x="0px" y="0px"
	 width="1400px" height="980px" viewBox="0 0 1400 980" enable-background="new 0 0 1400 980" xml:space="preserve">
<rect fill="#F4ECDC" width="1400" height="980"/>
<g>
	<g>
		<g>
			<path fill="#E58E4C" d="M908.546,829.842c-8.117,2.55-29.036,8.117-52.488,6.456c8.304,13.885,8.09,26.171,8.09,26.171
				l40.831-4.55c-2.438-15.354,3.656-27.863,3.656-27.863C908.606,829.99,908.576,829.912,908.546,829.842z"/>
			<path fill="#E26737" d="M908.546,829.842c-8.597-20.563-30.983-229.529-30.137-273.873c1.036-54.207-10.621-71.649-10.621-71.649
				l-75.914,35.256l62.769,314.461c0.5,0.757,0.966,1.512,1.415,2.262C879.51,837.959,900.429,832.392,908.546,829.842z"/>
		</g>
		<g>
			<path fill="#E58E4C" d="M516.957,829.281c-0.104,0.282-0.208,0.545-0.309,0.774c0,0,6.094,12.51,3.656,27.863l40.83,4.55
				c0,0-0.232-13.348,9.193-27.942C560.193,835.961,535.662,838.131,516.957,829.281z"/>
			<path fill="#E26737" d="M570.328,834.526c0.105-0.164,0.206-0.326,0.314-0.49l62.769-314.461l-75.914-35.256
				c0,0-11.657,17.442-10.623,71.649c0.84,43.97-21.164,249.796-29.917,273.313C535.662,838.131,560.193,835.961,570.328,834.526z"
				/>
		</g>
	</g>
	<path fill="#E26737" d="M788.24,509H639.824l2.92-64.656c0,0,38.78,4.634,70.624,3.497c29.929-1.068,67.149-3.414,67.149-3.414
		L788.24,509z"/>
	<g>
		<path fill="#E26737" d="M585.396,892.909c3.644,15.058,8.891,27.591,16.36,36.091h68.238h85.296h68.238
			c7.488-8.521,12.743-21.098,16.389-36.207C746.587,899.661,634.688,895.411,585.396,892.909z"/>
		<path fill="#E58E4C" d="M867.881,484.319c-35.926-32.848-79.259-38.827-87.363-39.68c0.238,1.641,0.36,3.306,0.36,4.992
			c0,26.695-30.55,48.335-68.236,48.335s-68.238-21.64-68.238-48.335c0-1.686,0.124-3.351,0.362-4.992
			c-8.103,0.853-51.438,6.832-87.364,39.68c0,0,27.295,18.196,30.707,44.354c0,0-6.824,114.866-7.961,180.829
			c-0.879,51.024-7.197,131.981,5.249,183.406c49.292,2.502,161.191,6.752,254.521-0.116c12.407-51.433,6.1-132.304,5.22-183.29
			c-1.138-65.963-7.961-180.829-7.961-180.829C840.587,502.516,867.881,484.319,867.881,484.319z"/>
	</g>
	<path fill="#E26737" d="M677.558,742.627l11.391,7.746l10.024-25.515c0,0,18.68,31.438,66.066,12.757
		c0,0-9.569-16.402-20.047-18.681c0,0,25.969-2.278,41.005-33.26c0,0-25.515-9.114-45.106-4.101c0,0,19.136-22.781,13.213-57.864
		c0,0-41.462,10.935-50.118,35.994c0,0-5.012-20.959-33.262-32.805c0,0-8.201,41.462,2.279,53.762c0,0-12.756-2.732-33.716-3.188
		c0,0,10.024,41.917,51.942,43.283L677.558,742.627z"/>
</g>
<g>
	<path fill="#3D8455" d="M52.089,565h44.567c0,0,0.776-5.427,2.116-14.575l-45.998-2.761C52.527,553.338,52.295,559,52.089,565z"/>
	<path fill="#3D8455" d="M130.925,582.761c-0.323,8.652-0.531,13.804-0.531,13.804s61.708,9.982,120.734,6.673
		c59.025,3.31,120.734-6.673,120.734-6.673s-0.202-5.013-0.518-13.445C273.531,590.245,162.72,584.652,130.925,582.761z"/>
	<path fill="#3D8455" d="M403.598,551.204C404.867,559.889,405.6,565,405.6,565h44.567c-0.223-6-0.474-12.602-0.746-18.709
		L403.598,551.204z"/>
	<g>
		<path fill="#599B69" d="M283.096,225.859L252,225.722v-0.004l-0.5,0.002l-0.5-0.002v0.004l-80.103,0.353
			c0,0-61.271-1.457-78.765,66.436c-16.769,65.081-33.554,124.05-39.315,255.399l45.977,2.679
			c6.321-43.195,25.173-165.831,34.11-155.066c4.457,5.369-0.308,142.705-1.974,187.239c18.129,1.079,61.976,3.358,114.429,3.8
			C237.935,467.935,272.502,279.906,283.096,225.859z"/>
		<path fill="#61AA79" d="M410.182,292.51c-17.494-67.893-78.498-66.436-78.498-66.436l-48.635-0.215
			c-10.594,54.046-45.14,242.075-37.716,360.701c39.536,0.332,83.971-0.379,126.011-3.441c-1.653-44.15-6.45-182.213-1.981-187.597
			c8.991-10.831,28.03,113.367,34.235,155.845l45.823-4.831C443.603,416.145,426.893,357.364,410.182,292.51z"/>
	</g>
	<path fill="#3D8455" d="M317.506,268l46.194-53.725l-29.408-0.811c39.985-71.64,0.08-113.099-22.53-133.579
		C288.595,58.898,256,57.992,251,57.959V58c0,0,0.143,0-0.001,0S251,58,251,58v-0.041c-4,0.033-37.597,0.957-60.765,21.945
		c-22.607,20.479-62.456,61.916-22.47,133.557l-29.438,0.822L184.491,268h-18.118c0,0,67.627,111.114,84.627,176.377v1.929
		c0-0.317-0.08-0.644,0-0.964c0.079,0.32,0,0.646,0,0.964v-1.929C268,379.114,335.625,268,335.625,268H317.506z"/>
	<path fill="#2C5E3A" d="M324.379,127.567c-19.773-31.125-63.363-35.377-73.611-34.743c-10.25-0.634-53.839,3.618-73.612,34.743
		c-18.278,28.771,1.666,71.438,17.078,97.261C209.644,250.652,246.873,322,250.542,340h0.451c3.668-18,40.898-89.348,56.31-115.172
		C322.713,199.005,342.656,156.339,324.379,127.567z"/>
	<g>
		<path fill="#3D8455" d="M339,500v37.836c0,10.352-8.018,19.164-18.37,19.164h-28.74C281.539,557,273,548.188,273,537.836V500"/>
		<path fill="#3D8455" d="M222,500v37.836c0,10.352-8.476,19.164-18.827,19.164h-28.739C164.082,557,156,548.188,156,537.836V500"/>
	</g>
</g>
<g>
	<g>
		<polygon fill="#755E7F" points="1018.526,343.44 1104.833,416.522 1110.793,405.847 1027.886,335.641 		"/>
		<path fill="#755E7F" d="M1117.002,394.725c0,0,151.251-86.932,167.43-114.291c3.988-6.743,0.896-28.185-23.917-20.308
			c-14.854,4.715-48.87,32.408-48.87,32.408s44.932-45.767,57.65-70.031c5.856-11.173-3.93-19.47-9.811-21.825
			c-13.699-5.486-43.199,28.056-73.296,55.86l47.39-55.965c0,0,15.94-18.825,1.049-30.124c-14.892-11.3-28.54,3.787-31.38,6.623
			c-2.84,2.838-48.956,54.203-48.956,54.203l32.531-49.765c0,0,10.851-17.456-3.122-26.23s-31.401,14.904-34.517,20.129
			c-3.113,5.225-57.657,86.144-57.657,86.144s33.849-62.04,2.005-75.614c-28.563-12.176-66.221,111.213-55.896,141.578l-0.39,0.324
			l79.51,67.327L1117.002,394.725z"/>
		<path fill="#755E7F" d="M999.807,359.038c0,0,2.874,8.985,43.322,43.234c44.758,37.901,49.781,35.605,49.781,35.605l5.962-10.678
			l-89.705-75.961L999.807,359.038z"/>
		<polygon fill="#4D506B" points="1037.245,327.842 1027.886,335.641 1110.793,405.847 1116.755,395.169 		"/>
		<polygon fill="#4D506B" points="1009.167,351.238 1098.872,427.199 1104.833,416.522 1018.526,343.44 		"/>
	</g>
	<g>
		<polygon fill="#84708C" points="969.965,295.568 1077.021,332.028 1078.664,319.912 975.825,284.887 		"/>
		<path fill="#84708C" d="M1080.376,307.289c0,0,108.985-136.22,114.038-167.6c1.247-7.734-9.472-26.561-29.686-10.155
			c-12.1,9.82-33.636,48.034-33.636,48.034s25.086-59.028,28.049-86.263c1.364-12.541-10.774-16.684-17.111-16.726
			c-14.756-0.097-29.95,41.909-47.793,78.794l23.642-69.419c0,0,7.953-23.349-10.039-28.421s-25.18,13.962-26.784,17.641
			c-1.605,3.679-25.743,68.35-25.743,68.35l12.079-58.214c0,0,3.716-20.214-12.499-23.272
			c-16.212-3.057-23.776,25.355-24.763,31.356c-0.988,6.003-22.164,101.263-22.164,101.263s8.817-70.12-25.784-71.11
			c-31.038-0.888-20.966,127.728-0.253,152.212l-0.244,0.446l98.623,33.588L1080.376,307.289z"/>
		<path fill="#84708C" d="M958.247,316.931c0,0,5.961,7.312,56.131,24.4c55.518,18.907,59.354,14.932,59.354,14.932l1.645-12.117
			l-111.271-37.896L958.247,316.931z"/>
		<polygon fill="#4D506B" points="981.685,274.207 975.825,284.887 1078.664,319.912 1080.308,307.794 		"/>
		<polygon fill="#4D506B" points="964.106,306.249 1075.377,344.145 1077.021,332.028 969.965,295.568 		"/>
	</g>
</g>
<g>
	<g>
		<g>
			<path fill="#301D17" d="M1177.038,902.848c-56.236-4.06-90.911-30.989-113.224-19.833l-53.968,1.399
				c1.115,22.766,3.146,38.586,3.146,38.586H1066v-25.11c21-11.156,54.924,15.773,109.23,19.833
				c66.318,4.958,82.506-12.396,82.506-12.396c0.687-2.06,2.072-6.972,2.682-13.181
				C1254.018,896.386,1232.289,906.837,1177.038,902.848z"/>
			<path fill="#663C2A" d="M1224.961,854.504c-62.728-11.709-81.251-49.519-95.362-71.896c-3.52-5.581-4.325-35.411-3.747-74.324
				c0.247-45.265,3.012-107.284,5.622-157.284H983.997c7.941,122,36.41,196.793,28.995,246.58
				c-4.48,30.079-4.334,62.424-3.146,86.723l53.968-1.264c22.313-11.156,56.987,15.761,113.224,19.82
				c55.251,3.989,77.017-6.468,83.417-10.707C1262.046,875.938,1258.574,860.779,1224.961,854.504z"/>
			<path fill="#301D17" d="M1135.285,484H982.002c-0.116,24,0.645,46,1.995,67h147.477C1132.955,523,1134.389,498,1135.285,484z"/>
		</g>
		<path fill="#301D17" d="M1040,581.505c0,8.558-6.938,15.495-15.495,15.495h-0.01c-8.558,0-15.495-6.938-15.495-15.495v-40.01
			c0-8.558,6.938-15.495,15.495-15.495h0.01c8.558,0,15.495,6.938,15.495,15.495V581.505z"/>
		<circle fill="#663C2A" cx="1024.975" cy="578.899" r="10.33"/>
	</g>
	<g>
		<g>
			<path fill="#301D17" d="M1196.184,879.758c-47.053-31.068-64.107-71.523-89.024-72.718l-47.666-25.335
				c-10.172,20.396-16.068,35.048-16.068,35.048l46.479,26.091l12.135-21.618c23.837,0.587,40.046,40.567,85.414,70.689
				c55.402,36.786,77.948,29.542,77.948,29.542c1.608-1.46,5.19-5.083,8.76-10.198
				C1266.505,911.822,1242.409,910.281,1196.184,879.758z"/>
			<path fill="#54291F" d="M1261.635,861.059c-48.967-40.915-46.611-82.952-47.964-109.372c-0.337-6.589,13.608-33.08,33.163-66.729
				c22.371-39.35,55.327-92.41,81.939-134.484l-128.603-72.189c-53.111,110.838-64.626,189.51-95.462,229.296
				c-18.63,24.036-34.359,52.354-45.216,74.125l47.666,25.335c24.917,1.194,41.972,41.649,89.024,72.718
				c46.226,30.523,70.321,32.064,77.978,31.501C1283.484,897.897,1287.875,882.985,1261.635,861.059z"/>
			<path fill="#301D17" d="M1364.861,493.967l-133.664-75.031c-11.75,20.695-21.986,40.484-31.026,59.348l128.603,72.189
				C1343.876,526.595,1356.938,506.253,1364.861,493.967z"/>
		</g>
		<path fill="#301D17" d="M1234.37,532.307c-4.19,7.462-13.635,10.115-21.097,5.927l0,0c-7.461-4.188-10.116-13.634-5.926-21.096
			l19.415-34.589c4.189-7.462,13.635-10.115,21.096-5.927l0,0c7.462,4.188,10.117,13.633,5.927,21.096L1234.37,532.307z"/>
		<circle fill="#592F23" cx="1222.153" cy="522.838" r="10.33"/>
	</g>
</g>
<g>
	<g>
		<g>
			<path fill="#B0824D" d="M774.215,224.601l33.896-99.14l-95.734-28.26l-19.098,79.916c15.79,5.339,27.355,17.918,32.362,33.202
				c3.238,9.885,3.726,20.893,0.835,31.803c-0.14,0.523-0.269,1.047-0.423,1.569c-4.14,14.024-13.18,25.192-24.542,32.062
				l29.61,68.819c14.197-29.713,47.144-45.83,78.399-36.604c0.221,0.065,0.435,0.145,0.654,0.212L774.215,224.601z"/>
			<polygon fill="#A36D36" points="817.825,97.049 719.359,67.982 712.377,97.201 808.111,125.461 			"/>
			<path fill="#A36D36" d="M725.642,210.319c-5.007-15.284-16.572-27.863-32.362-33.202c0,0-13.495,38.365-12.322,51.568
				c1.136,12.79,20.555,47.067,20.555,47.067c11.362-6.869,20.402-18.037,24.542-32.062c0.154-0.522,0.283-1.046,0.423-1.569
				C729.367,231.212,728.88,220.204,725.642,210.319z"/>
			<path fill="#A36D36" d="M785.766,369.517l3.609-2.107c20.464-8.805,32.119-32.923,23.314-53.387l-2.514-5.842
				c-0.22-0.067-0.434-0.146-0.654-0.212c-31.256-9.227-64.202,6.891-78.399,36.604l1.649,3.835
				C741.576,368.87,765.302,378.321,785.766,369.517z"/>
		</g>
		
			<rect x="724.24" y="71.097" transform="matrix(0.9591 0.2832 -0.2832 0.9591 54.1827 -202.5878)" fill="#C18346" width="6.999" height="29.999"/>
		
			<rect x="738.626" y="75.343" transform="matrix(0.9591 0.2831 -0.2831 0.9591 55.9229 -206.3695)" fill="#C18346" width="7" height="30"/>
		
			<rect x="753.012" y="79.59" transform="matrix(0.9591 0.283 -0.283 0.9591 57.7014 -210.2405)" fill="#C18346" width="7.001" height="30"/>
		
			<rect x="768.358" y="84.12" transform="matrix(0.9591 0.2832 -0.2832 0.9591 59.6652 -214.5217)" fill="#C18346" width="7" height="30"/>
		
			<rect x="782.744" y="88.366" transform="matrix(0.9591 0.2831 -0.2831 0.9591 61.4263 -218.3533)" fill="#C18346" width="6.999" height="30"/>
		
			<rect x="797.131" y="92.613" transform="matrix(0.9591 0.2832 -0.2832 0.9591 63.2612 -222.3511)" fill="#C18346" width="6.999" height="30"/>
	</g>
	<g>
		<g>
			<path fill="#B0824D" d="M642.568,230.509l17.354-103.327l-99.052-12.345l-5.871,81.957c16.446,2.705,29.901,13.239,37.322,27.508
				c4.8,9.228,7.067,20.01,5.986,31.246c-0.053,0.539-0.096,1.077-0.163,1.617c-1.808,14.51-8.915,26.998-19.012,35.621l40.389,63.1
				c9.186-31.623,39.079-52.875,71.418-48.844c0.229,0.029,0.452,0.073,0.68,0.103L642.568,230.509z"/>
			<polygon fill="#A36D36" points="664.895,97.57 563.017,84.873 560.87,114.837 659.921,127.183 			"/>
			<path fill="#A36D36" d="M592.321,224.302c-7.421-14.269-20.876-24.803-37.322-27.508c0,0-7.089,40.047-3.789,52.884
				c3.197,12.436,27.923,43.107,27.923,43.107c10.097-8.623,17.204-21.11,19.012-35.621c0.067-0.54,0.11-1.078,0.163-1.617
				C599.388,244.313,597.121,233.53,592.321,224.302z"/>
			<path fill="#A36D36" d="M677.489,371.629l3.22-2.666c18.764-12.01,26.348-37.7,14.339-56.463l-3.429-5.356
				c-0.228-0.03-0.451-0.074-0.68-0.103c-32.339-4.03-62.232,17.221-71.418,48.844l2.25,3.517
				C633.781,378.164,658.725,383.639,677.489,371.629z"/>
		</g>
		
			<rect x="570.727" y="86.388" transform="matrix(0.9923 0.1238 -0.1238 0.9923 16.9741 -70.3254)" fill="#C18346" width="6.999" height="29.998"/>
		
			<rect x="585.611" y="88.241" transform="matrix(0.9923 0.1236 -0.1236 0.9923 17.2788 -72.0257)" fill="#C18346" width="7" height="30"/>
		
			<rect x="600.496" y="90.097" transform="matrix(0.9923 0.1237 -0.1237 0.9923 17.6317 -73.8818)" fill="#C18346" width="7.001" height="29.999"/>
		
			<rect x="616.373" y="92.075" transform="matrix(0.9923 0.1238 -0.1238 0.9923 18.0267 -75.9236)" fill="#C18346" width="7" height="30"/>
		
			<rect x="631.258" y="93.931" transform="matrix(0.9923 0.1237 -0.1237 0.9923 18.3482 -77.6775)" fill="#C18346" width="6.999" height="29.999"/>
		
			<rect x="646.143" y="95.785" transform="matrix(0.9923 0.1238 -0.1238 0.9923 18.715 -79.5809)" fill="#C18346" width="7" height="30"/>
	</g>
</g>
<g>
	<ellipse fill="#EFCA33" cx="252.25" cy="839.415" rx="198.25" ry="58.514"/>
	<g>
		<path fill="#663C2A" d="M137.448,805.033c-2.332,19.123-3.682,32.926-3.682,32.926s107.713,26.783,227.071,0
			c0,0-0.78-13.904-2.636-33.195C252.824,827.75,157.106,809.334,137.448,805.033z"/>
		<path fill="#EFCA33" d="M358.2,804.764c-4.09-42.519-13.409-111.209-31.133-114.896c-32.605-6.781-57.254,8.938-79.766,8.938
			c-27.365,0-50.072-22.125-84.423-6.986c-10.614,4.677-20.351,71.571-25.43,113.214C157.106,809.334,252.824,827.75,358.2,804.764z
			"/>
	</g>
</g>
</svg>
