<?xml version="1.0" encoding="utf-8"?>
<!-- Generator: Adobe Illustrator 16.0.0, SVG Export Plug-In . SVG Version: 6.00 Build 0)  -->
<!DOCTYPE svg PUBLIC "-//W3C//DTD SVG 1.1//EN" "http://www.w3.org/Graphics/SVG/1.1/DTD/svg11.dtd">
<svg version="1.1" id="Layer_1" xmlns="http://www.w3.org/2000/svg" xmlns:xlink="http://www.w3.org/1999/xlink" x="0px" y="0px"
	 width="1400px" height="980px" viewBox="0 0 1400 980" enable-background="new 0 0 1400 980" xml:space="preserve">
<rect y="-3" fill="#E2DAC7" width="1400" height="983"/>
<g>
	<g>
		<path fill="#683D19" d="M1192,342.918c0,34.287-27.795,62.082-62.082,62.082h-19.836c-34.287,0-62.082-27.795-62.082-62.082
			V177.082c0-34.287,27.795-62.082,62.082-62.082h19.836c34.287,0,62.082,27.795,62.082,62.082V342.918z M1174,176.502
			c0-24.026-19.477-43.502-43.503-43.502h-21.994c-24.026,0-43.503,19.477-43.503,43.502v165.995
			c0,24.026,19.477,43.502,43.503,43.502h21.994c24.026,0,43.503-19.477,43.503-43.502V176.502z"/>
	</g>
	<g>
		<g>
			<path fill="#683D19" d="M1111.77,364.457L990.085,251.244l-32.253,154.884C954.753,420.906,965.473,433,981.651,433h275.593
				c16.18,0,26.9-12.094,23.822-26.872l-32.255-154.883l-121.685,113.214C1122.887,368.404,1116.01,368.403,1111.77,364.457z"/>
		</g>
		<g>
			<path fill="#563013" d="M1209.249,205h-179.601c-16.18,0-31.936,12.291-35.014,27.069l-4.55,19.075l121.685,113.263
				c4.24,3.946,11.117,3.971,15.357,0.027l121.685-113.202l-4.551-19.169C1241.184,217.284,1225.428,205,1209.249,205z"/>
		</g>
	</g>
	<g>
		<g>
			<g>
				<rect x="1033" y="207" fill="#563013" width="27" height="193"/>
			</g>
			<g>
				<rect x="1033" y="364" fill="#D9D098" width="27" height="17"/>
			</g>
			<g>
				<path fill="#563013" d="M1060,404.905c0,6.763-6.232,12.244-13.5,12.244l0,0c-7.268,0-13.5-5.481-13.5-12.244v-7.202
					c0-6.761,6.232-12.244,13.5-12.244l0,0c7.268,0,13.5,5.483,13.5,12.244V404.905z"/>
			</g>
		</g>
		<g>
			<g>
				<rect x="1179" y="207" fill="#563013" width="26" height="193"/>
			</g>
			<g>
				<rect x="1179" y="364" fill="#D9D098" width="26" height="17"/>
			</g>
			<g>
				<path fill="#563013" d="M1205,404.905c0,6.763-5.732,12.244-13,12.244l0,0c-7.27,0-13-5.481-13-12.244v-7.202
					c0-6.761,5.73-12.244,13-12.244l0,0c7.268,0,13,5.483,13,12.244V404.905z"/>
			</g>
		</g>
	</g>
</g>
<g>
	<g>
		<rect x="578" y="722" fill="#563013" width="362" height="94"/>
		<path fill="#563013" d="M983.247,757.444c6.524,6.525,6.524,17.106,0,23.631l-30.723,30.724c-6.526,6.525-17.106,6.525-23.633,0
			l-30.722-30.724c-6.525-6.524-6.525-17.106,0-23.632l30.721-30.723c6.526-6.525,17.107-6.524,23.634,0L983.247,757.444z"/>
		<g>
			<circle fill="#D9D098" cx="758.827" cy="769.261" r="74.107"/>
			<path fill="#563013" d="M758.826,849.622c-44.312,0-80.36-36.05-80.36-80.361s36.049-80.362,80.36-80.362
				c44.313,0,80.362,36.051,80.362,80.362S803.139,849.622,758.826,849.622z M758.826,701.406
				c-37.415,0-67.853,30.439-67.853,67.854c0,37.414,30.438,67.854,67.853,67.854c37.417,0,67.854-30.439,67.854-67.854
				C826.681,731.846,796.243,701.406,758.826,701.406z"/>
		</g>
		<g>
			<path fill="#9B7D68" d="M753,724c0,0,0,31.813,0,47.657c0,2.387,3.127,5.343,5.514,5.343c17.094,0,33.486,0,50.486,0
				c7,0,7-10,0-10c-17,0-33.393,0-50.486,0c1.459,2,2.486,3.197,3.486,4.657c0-15.844,0-31.657,0-47.657C762,719,753,719,753,724
				C753,724,753,719,753,724z"/>
		</g>
	</g>
	<path fill="#563013" d="M602,809.004c0,3.864-3.132,6.996-6.996,6.996h-44.009c-3.864,0-6.996-3.132-6.996-6.996v-80.008
		c0-3.864,3.132-6.996,6.996-6.996h44.009c3.864,0,6.996,3.132,6.996,6.996V809.004z"/>
	<g>
		<path fill="#9B7D68" d="M530,775c0,0,29,0,43,0c6,0,6-10,0-10c-14,0-29,0-43,0C524,765,524,775,530,775C530,775,524,775,530,775z"
			/>
	</g>
	<g>
		<path fill="#9B7D68" d="M569.65,797.298c-0.033,5.774,0.68,14.19-6.879,14.542c-2.192,0.104-4.415,0.16-6.609,0.16
			c-9.544,0-19.089,0-28.632,0c-9.139,0-18.106,0.207-21.177-10.72c-1.59-5.653-0.353-13.198-0.353-18.944c0-9.859,0-19.72,0-29.58
			c0-6.681-1.096-14.17,2.344-20.168c4.34-7.561,15.057-5.588,22.369-5.588c9.323,0,18.647,0,27.971,0
			c1.976,0,4.075-0.341,6.039-0.039c5.745,0.88,5.079,10.001,5.103,14.145c0.029,4.988,0.175,9.883,0.175,14.869
			c0,13.774,0,27.025,0,41.025c0,7,9,7,9,0c0-16,0-30.729,0-46.243c0-6.788-0.01-13.091-1.069-19.813
			C576.441,721.5,568.629,719,560.08,719c-9.03,0-18.06,0-27.089,0c-6.953,0-14.909-1.49-21.602,0.768
			C492.867,726.01,497,750.368,497,765.44c0,10.513,0,21.025,0,31.538C497,811.535,507.797,821,521.685,821
			c12.071,0,24.142,0,36.211,0c4.45,0,8.478-0.237,12.684-2.054c7.706-3.322,7.785-14.611,7.825-21.509
			C578.438,791.791,569.682,791.653,569.65,797.298z"/>
	</g>
</g>
<g>
	<path fill="#0E0E11" d="M1357.094,786.491c-27.234,11.743-117.16,45.818-174.391,11.699c-37.749-22.509-53.36-85.318-86.188-95.166
		l-68.604-23.6C1037.982,737.891,1058.765,833,1058.765,833H1090V722.72c32,9.848,48.414,72.659,86.164,95.166
		c68.092,40.598,182.471-15.354,182.471-15.354C1358.635,796.572,1358.07,791.271,1357.094,786.491z"/>
	<path fill="#26263A" d="M1182.703,798.19c57.23,34.119,147.156,0.044,174.391-11.699c-8.146-39.98-47.723-41.114-75.034-43.117
		c-27.973-2.053-37.136-17.428-37.136-17.428C1214.723,671.835,1204.297,600,1200.769,553h-164.393
		c-5.854,34-12.533,72.882-13.723,84.178c-0.06,0.563-0.083,1.148-0.084,1.932c-0.014,6.83,2.112,21.734,5.342,40.486l68.604,23.455
		C1129.343,712.899,1144.954,775.682,1182.703,798.19z"/>
	<path fill="#0E0E11" d="M1199.102,500.259c-3.281-3.382-147.488-4.897-153.469,0.108c-10.225,8.559-14.771,31.633-9.257,52.633
		h164.393C1205.891,536,1210.222,511.716,1199.102,500.259z"/>
	<g>
		<path fill="none" d="M1282.06,743.374c-27.973-2.053-37.136-17.645-37.136-17.645c-2.438-4.371-4.735-8.86-6.922-13.432
			c-13.826,4.136-27.651,8.271-41.477,12.405c-7.118,2.128-10.135-8.962-3.055-11.08c13.25-3.962,26.502-7.927,39.752-11.888
			c-1.953-4.576-3.808-9.218-5.547-13.916c-13.666,4.088-27.332,8.175-41,12.263c-7.115,2.129-10.133-8.962-3.053-11.08
			c13.415-4.01,26.828-8.022,40.243-12.035c-1.404-4.224-2.721-8.479-3.971-12.742c-14.354,4.291-28.712,8.586-43.066,12.879
			c-7.117,2.128-10.136-8.962-3.056-11.079c14.349-4.291,28.696-8.583,43.045-12.874c-1.326-5.047-2.555-10.097-3.691-15.128
			c-14.288,4.271-28.575,8.545-42.864,12.819c-7.117,2.129-10.135-8.962-3.054-11.08c14.502-4.337,29.005-8.676,43.508-13.011
			c-1.043-5.174-1.991-10.307-2.858-15.38c-14.721,4.403-29.439,8.807-44.159,13.208c-7.117,2.128-10.137-8.961-3.057-11.079
			c15.126-4.524,30.254-8.831,45.381-13.354c-2.569-17.125-4.216-33.146-5.255-47.146h-164.393
			c-5.854,34-12.533,72.882-13.723,84.178c-0.06,0.563-0.083,1.148-0.084,1.932c-0.014,6.83,2.112,21.734,5.342,40.486
			l68.604,23.455c32.827,9.849,48.438,72.645,86.188,95.152c57.23,34.121,147.156,0.038,174.391-11.705
			C1348.948,746.519,1309.371,745.377,1282.06,743.374z"/>
		<path fill="#0E0E11" d="M1163.699,624.579c14.72-4.401,29.438-8.805,44.159-13.208c-0.66-3.854-1.27-7.674-1.835-11.443
			c-15.127,4.524-30.255,9.048-45.381,13.572C1153.563,615.618,1156.582,626.707,1163.699,624.579z"/>
		<path fill="#0E0E11" d="M1170.263,650.842c14.289-4.274,28.576-8.548,42.864-12.819c-0.854-3.772-1.655-7.532-2.41-11.271
			c-14.503,4.335-29.006,8.674-43.508,13.011C1160.128,641.88,1163.146,652.971,1170.263,650.842z"/>
		<path fill="#0E0E11" d="M1176.829,677.104c14.354-4.293,28.712-8.588,43.066-12.879c-1.079-3.687-2.105-7.378-3.077-11.074
			c-14.349,4.291-28.696,8.583-43.045,12.874C1166.693,668.142,1169.712,679.231,1176.829,677.104z"/>
		<path fill="#0E0E11" d="M1186.676,700.082c13.668-4.088,27.334-8.175,41-12.263c-1.329-3.59-2.6-7.211-3.81-10.853
			c-13.415,4.013-26.828,8.025-40.243,12.035C1176.543,691.12,1179.561,702.211,1186.676,700.082z"/>
		<path fill="#0E0E11" d="M1196.525,724.703c13.825-4.134,27.65-8.27,41.477-12.405c-1.662-3.472-3.255-6.995-4.779-10.563
			c-13.25,3.961-26.502,7.926-39.752,11.888C1186.391,715.741,1189.407,726.831,1196.525,724.703z"/>
	</g>
</g>
<g>
	<path fill="#7A1723" d="M408.253,289.769c-0.327-3.58-1.063-9.899-2.653-17.841c-7.066-35.253-31.003-102.338-110.876-102.338
		c-56.119,0-102.744,43.53-112.07,101.891c-0.949,5.942-1.489,12.042-1.637,18.259C97.423,301.633,40,324.086,40,337.645
		c0,19.099,113.957,27.933,254.53,27.933c140.572,0,254.53-8.833,254.53-27.933C549.06,324.098,491.732,301.669,408.253,289.769z"/>
	<g>
		<path fill="#E29586" d="M410.575,290.106c-38.048,6.954-76.179,9.312-110.294,9.312c-60.306,0-108.076-7.324-120.744-9.465
			C96.749,301.9,40,324.167,40,337.645c0,19.099,113.957,27.933,254.53,27.933c140.572,0,254.53-8.833,254.53-27.933
			C549.06,324.225,492.791,302.089,410.575,290.106z"/>
		<path fill="#E29586" d="M406.306,275.67c-0.217-1.207-0.446-2.445-0.706-3.743c-7.066-35.253-31.003-102.338-110.876-102.338
			c-56.119,0-102.744,43.53-112.07,101.891c-0.197,1.232-0.365,2.476-0.527,3.719C201.969,278.534,304.24,293.901,406.306,275.67z"
			/>
		<path fill="#FFFFFF" d="M410.575,290.106c-0.772-0.113-1.543-0.226-2.322-0.337c-0.273-2.994-0.84-7.924-1.947-14.099
			c-102.066,18.231-204.337,2.864-224.179-0.472c-0.618,4.761-0.993,9.611-1.11,14.54c-0.496,0.071-0.986,0.144-1.48,0.215
			c12.668,2.141,60.438,9.465,120.744,9.465C334.396,299.418,372.527,297.06,410.575,290.106z"/>
	</g>
</g>
<g>
	<g>
		<path fill="#680C1B" d="M173.155,811h242.452c2.256-10,4.332-21,6.254-31H166.901C168.823,790,170.898,801,173.155,811z"/>
		<path fill="#680C1B" d="M423.941,463.973c-7.166-19.939-13.759-27.898-13.759-27.898s-71.014,8.603-115.826,8.752
			c-44.813-0.149-115.777-8.752-115.777-8.752s-6.594,7.959-13.76,27.898c15.563,1.813,84.208,9.503,129.533,9.654
			C339.679,473.476,408.372,465.784,423.941,463.973z"/>
		<path fill="#7A1723" d="M423.941,463.957c-15.57,1.811-84.263,9.511-129.589,9.662c-45.325-0.15-113.97-7.853-129.533-9.666
			C149.917,505.419,132.557,599,166.901,780H421.86C456.204,599,438.843,505.422,423.941,463.957z"/>
	</g>
	<path fill="#680C1B" d="M276,457.338V571h5.438C298.973,571,314,556.354,314,538.817v-83.981L276,457.338z"/>
	<g>
		<path fill="none" d="M222.491,512.571c8.378-12.563,15.597-26.656,20.432-41.194c-34.51-2.459-67.843-6.21-78.104-7.404
			c-7.014,19.516-14.57,50.521-17.026,96.77C179.317,558.282,204.824,539.063,222.491,512.571z"/>
		<path fill="none" d="M360.253,519.846c-9.943-14.457-18.457-30.893-23.815-47.837c-14.743,0.937-29.338,1.576-42.085,1.618
			c-12.845-0.042-27.563-0.691-42.414-1.641c-5.359,16.952-13.875,33.398-23.822,47.86c-19.127,27.813-47.18,47.525-80.724,49.711
			C145.483,620.727,149.729,690,166.901,780H421.86c17.169-90,21.416-159.256,19.508-210.424
			C407.652,567.52,379.455,547.767,360.253,519.846z"/>
		<path fill="none" d="M440.969,560.778c-2.454-46.271-10.013-77.284-17.027-96.806c-10.299,1.198-43.839,4.97-78.486,7.428
			c4.834,14.529,12.05,28.615,20.423,41.17C383.62,539.174,409.263,558.446,440.969,560.778z"/>
		<path fill="#680C1B" d="M441.369,569.594c-0.112-3-0.247-5.935-0.4-8.815c-31.706-2.332-57.349-21.604-75.09-48.207
			c-8.374-12.556-15.589-26.642-20.423-41.17c-3.002,0.213-6.013,0.417-9.018,0.608c5.359,16.944,13.873,33.38,23.815,47.837
			C379.455,547.767,407.652,567.536,441.369,569.594z"/>
		<path fill="#680C1B" d="M228.117,519.846c9.947-14.462,18.463-30.908,23.822-47.86c-3.005-0.191-6.015-0.396-9.016-0.609
			c-4.834,14.538-12.053,28.632-20.432,41.194c-17.667,26.491-43.174,45.711-74.698,48.171c-0.153,2.887-0.289,5.827-0.4,8.832
			C180.937,567.387,208.989,547.659,228.117,519.846z"/>
	</g>
	<circle fill="#440411" cx="294.27" cy="465.164" r="8.464"/>
</g>
<g>
	<g>
		<path fill="#7A1723" d="M828.765,260.88l56.701-30.681C867.956,192.675,827.513,172,827.513,172h-46.78
			c-1.786,26-31.022,46.278-66.827,46.278c-35.808,0-65.044-20.278-66.831-46.278h-46.781c0,0-40.441,20.909-57.952,58.432
			l56.701,30.625c0,0,0.001,75.943,19.12,141.943h191.482C828.765,337,828.765,260.88,828.765,260.88z"/>
		<polygon fill="#7A1723" points="609.401,439 574.861,575 852.947,575 818.407,439 		"/>
		<path fill="#E29586" d="M809.586,403.697c0.02-0.07,0.038-0.697,0.059-0.697H618.163c0.02,0,0.04,0.627,0.059,0.697L609.401,439
			h209.006L809.586,403.697z"/>
	</g>
	<polyline fill="#E29586" points="599.042,261.347 537.443,231.329 552.857,208.603 600.799,239.631 	"/>
	<polyline fill="#E29586" points="829.375,261.347 890.976,231.329 875.561,208.603 827.619,239.631 	"/>
	<g>
		<path fill="#E29586" d="M792.284,280c0-4.144-3.359-8-7.505-8h-1.895l1.342-1.038c2.929-2.93,2.929-7.532,0-10.462
			c-2.934-2.931-7.82-2.855-10.751,0.076L772,261.989v-1.893c0-4.145-3.355-7.505-7.5-7.505s-7.5,3.36-7.5,7.505v1.894l-1.207-1.34
			c-2.93-2.93-7.616-2.93-10.547,0c-2.931,2.932-2.898,7.381,0.032,10.311l1.373,1.038h-1.895c-4.146,0-7.505,3.856-7.505,8
			c0,4.145,3.359,8,7.505,8h1.893l-1.339,1.146c-2.93,2.931-2.93,7.585,0,10.517c2.933,2.93,7.553,2.881,10.482-0.049l1.207-1.388
			v1.895c0,4.145,3.355,7.505,7.5,7.505s7.5-3.36,7.5-7.505v-1.894l1.478,1.34c2.929,2.93,7.749,2.93,10.681,0
			c2.93-2.931,2.963-7.49,0.033-10.419L782.887,288h1.893C788.925,288,792.284,284.145,792.284,280z"/>
		<circle fill="#7A1723" cx="765.394" cy="280.322" r="7.713"/>
	</g>
</g>
</svg>
