<?xml version="1.0" encoding="utf-8"?>
<!-- Generator: Adobe Illustrator 16.0.0, SVG Export Plug-In . SVG Version: 6.00 Build 0)  -->
<!DOCTYPE svg PUBLIC "-//W3C//DTD SVG 1.1//EN" "http://www.w3.org/Graphics/SVG/1.1/DTD/svg11.dtd">
<svg version="1.1" xmlns="http://www.w3.org/2000/svg" xmlns:xlink="http://www.w3.org/1999/xlink" x="0px" y="0px" width="1000px"
	 height="1000px" viewBox="0 0 1000 1000" style="enable-background:new 0 0 1000 1000;" xml:space="preserve">
<g id="Layer_5">
	<rect x="-53.5" y="-53.5" style="fill:#C3E0EA;" width="1107" height="1107"/>
</g>
<g id="Layer_2">
	<g>
		<path style="fill:#F0F0EF;" d="M465.8,427.3c-14-8.7-32.4-4.3-41.1,9.7L342,557.2c-4,6.4-5.2,13.8-4,20.7l0.5-0.6l31.7,25.3
			c9-0.9,17.5-5.8,22.6-14l82.7-120.2C484.2,454.4,479.9,436,465.8,427.3z"/>
		<path style="fill:#F0F0EF;" d="M686.7,577.3l0.5,0.6c1.2-6.9,0-14.3-4-20.7L600.5,437c-8.7-14-27.1-18.4-41.1-9.7
			c-14,8.7-18.4,27.1-9.7,41.1l82.7,120.2c5.1,8.3,13.6,13.2,22.6,14L686.7,577.3z"/>
		<rect x="448.8" y="422.9" style="fill:#4CBD94;" width="127.5" height="181.9"/>
		<polygon style="fill:#4CBD94;" points="327.4,591.1 359.2,616.4 370.3,602.7 338.5,577.3 		"/>
		<polygon style="fill:#4CBD94;" points="697.8,591.1 666.1,616.4 654.9,602.7 686.7,577.3 		"/>
		<rect x="482.8" y="394.7" style="fill:#F0F0EF;" width="59.6" height="28.1"/>
		<rect x="509.9" y="394.7" style="fill:#2CAE88;" width="5.5" height="210"/>
		<g>
			
				<rect x="522.7" y="553.2" transform="matrix(0.7071 0.7071 -0.7071 0.7071 554.2228 -224.8772)" style="fill:#F0F0EF;" width="51.8" height="6.8"/>
			
				<rect x="450.8" y="553.2" transform="matrix(-0.7071 0.7071 -0.7071 -0.7071 1207.2754 613.0809)" style="fill:#F0F0EF;" width="51.8" height="6.8"/>
		</g>
	</g>
	<g>
		<polygon style="fill:#4C4384;" points="517.3,114 507.9,114 436.4,114 436.4,192.1 436.4,333.2 507.9,333.2 512.6,192.1 
			512.6,192.1 517.3,333.2 588.8,333.2 588.8,192.1 588.8,114 		"/>
		<rect x="436.4" y="97.6" style="fill:#2D2766;" width="152.4" height="16.4"/>
		<rect x="566.5" y="127.5" style="fill:#2D2766;" width="14.1" height="4.7"/>
	</g>
	<g>
		
			<rect x="552.2" y="733.3" transform="matrix(0.7275 0.6861 -0.6861 0.7275 679.6966 -197.6864)" style="fill:#6CCACD;" width="73" height="47"/>
		
			<rect x="400" y="733.3" transform="matrix(-0.7275 0.6861 -0.6861 -0.7275 1273.3381 1007.8374)" style="fill:#6CCACD;" width="73" height="47"/>
		<rect x="446.9" y="714.7" style="fill:#89D3E1;" width="131.4" height="187.7"/>
		<path style="fill:#4CBD94;" d="M464.2,714.7c0,26.7,21.7,48.4,48.4,48.4c26.7,0,48.4-21.7,48.4-48.4H464.2z"/>
	</g>
	<g>
		<polygon style="fill:#2D2766;" points="854.5,392.2 827.1,411.1 799.8,392.2 779.9,392.2 817.2,421.5 817.2,488.8 837.1,488.8 
			837.1,421.5 874.3,392.2 		"/>
		<path style="fill:#7F74A9;" d="M895.8,475.3c0-14.2-9-26.3-21.5-30.9v-52.1h-19.9v50.1h-54.7v-50.1h-19.9v52.1
			c-12.6,4.7-21.5,16.8-21.5,30.9c0,9.1,3.7,17.4,9.7,23.3V619h118.1V498.6C892.1,492.6,895.8,484.4,895.8,475.3z"/>
	</g>
	<g>
		<g>
			<polygon style="fill:#4CBD94;" points="227.6,135.2 193.8,158.7 160,135.2 135.4,135.2 181.5,171.5 181.5,254.6 206.1,254.6 
				206.1,171.5 252.2,135.2 			"/>
			<path style="fill:#89D3E1;" d="M278.8,238c0-17.5-11.1-32.5-26.6-38.3v-64.5h-24.6v61.9H160v-61.9h-24.6v64.5
				c-15.5,5.8-26.6,20.7-26.6,38.3c0,12.4,5.5,23.5,14.2,30.9v26.7h141.5v-26.7C273.3,261.4,278.8,250.3,278.8,238z"/>
		</g>
		<rect x="123" y="282.1" style="fill:#4CBD94;" width="141.5" height="13.5"/>
		<circle style="fill:#4CBD94;" cx="241" cy="213.4" r="5"/>
	</g>
	<g>
		<g>
			<path style="fill:#E7E7E7;" d="M866.7,735.4h-54.9v70l-30.3,15.7c-13,6.8-18.1,22.8-11.3,35.8s22.8,18.1,35.8,11.3l46.4-24.1
				c8.2-4.3,13.2-12.2,14.1-20.8h0.2V735.4z"/>
			<rect x="811.8" y="735.4" style="fill:#2CAE88;" width="54.9" height="16.2"/>
			<path style="fill:#2CAE88;" d="M778.5,822.9c-10.8,7.5-14.6,22-8.4,34c6.2,12,20.3,17.2,32.6,12.7c1.5-3.9,2.4-8.2,2.4-12.7
				C805.2,840.4,793.8,826.7,778.5,822.9z"/>
			<path style="fill:#61BB93;" d="M866.5,823.3h0.2v-14.1c-14.2,4.5-24.5,17.7-24.5,33.4c0,2.2,0.2,4.3,0.6,6.4l9.6-5
				C860.6,839.8,865.6,831.9,866.5,823.3z"/>
		</g>
		<g>
			<path style="fill:#F0F0EF;" d="M887.1,745.9h-54.9v70l-30.3,15.7c-13,6.8-18.1,22.8-11.3,35.8c6.8,13,22.8,18.1,35.8,11.3
				l46.4-24.1c8.2-4.3,13.2-12.2,14.1-20.8h0.2V745.9z"/>
			<rect x="832.2" y="745.9" style="fill:#4CBD94;" width="54.9" height="16.2"/>
			<path style="fill:#4CBD94;" d="M799,833.5c-10.8,7.5-14.6,22-8.4,34c6.2,12,20.3,17.2,32.6,12.7c1.5-3.9,2.4-8.2,2.4-12.7
				C825.6,851,814.2,837.2,799,833.5z"/>
			<path style="fill:#4CBD94;" d="M886.9,833.9h0.2v-14.1c-14.2,4.5-24.5,17.7-24.5,33.4c0,2.2,0.2,4.3,0.6,6.4l9.6-5
				C881,850.3,886,842.4,886.9,833.9z"/>
		</g>
	</g>
	<g>
		<g>
			<polygon style="fill:#4C4384;" points="199.3,745.5 188.3,745.5 104.2,745.5 104.2,837.3 104.2,890.9 188.3,890.9 193.8,837.3 
				193.8,837.3 199.3,890.9 283.4,890.9 283.4,837.3 283.4,745.5 			"/>
			<rect x="104.2" y="726.2" style="fill:#7F74A9;" width="179.3" height="19.3"/>
		</g>
		<g>
			<rect x="183.4" y="733.9" style="fill:#F0F0EF;" width="3.7" height="46.9"/>
			<rect x="200.5" y="733.9" style="fill:#F0F0EF;" width="3.7" height="46.9"/>
		</g>
	</g>
	<g>
		<path style="fill:#4CBD94;" d="M881.3,192.2c-16.7-16.7-9.7-94.4-9.7-94.4h-8.2c0,20-16.2,36.3-36.3,36.3
			c-20,0-36.3-16.2-36.3-36.3h-8.2c0,0,7,77.7-9.7,94.4c-4.3,4.3-14.3,31.8-14.3,31.8v108.9h137V224.1
			C895.6,224.1,885.6,196.5,881.3,192.2z"/>
		<rect x="839.1" y="159.5" style="fill:#F0F0EF;" width="21.3" height="6.9"/>
	</g>
	<g>
		<path style="fill:#7F74A9;" d="M198.5,457.9v44.4h-48.7c-21.7,0-39.2,17.6-39.2,39.2v0h87.9H277v0v-83.6H198.5z"/>
		<rect x="110.6" y="541.5" style="fill:#F0F0EF;" width="166.5" height="11.7"/>
		<path style="fill:#F0F0EF;" d="M227.9,468c0-2-1.6-3.6-3.6-3.6h-25.8v7.2h25.8C226.3,471.6,227.9,470,227.9,468z"/>
		<path style="fill:#F0F0EF;" d="M227.9,482.1c0-2-1.6-3.6-3.6-3.6h-25.8v7.2h25.8C226.3,485.7,227.9,484.1,227.9,482.1z"/>
		<path style="fill:#F0F0EF;" d="M227.9,496.1c0-2-1.6-3.6-3.6-3.6h-25.8v7.2h25.8C226.3,499.7,227.9,498.1,227.9,496.1z"/>
		<circle style="fill:#F0F0EF;" cx="249.5" cy="496.1" r="12.6"/>
	</g>
</g>
</svg>
